<?xml version="1.0" standalone="no"?>
<!DOCTYPE svg PUBLIC "-//W3C//DTD SVG 20010904//EN"
 "http://www.w3.org/TR/2001/REC-SVG-20010904/DTD/svg10.dtd">
<svg version="1.0" xmlns="http://www.w3.org/2000/svg"
 width="32.000000pt" height="32.000000pt" viewBox="0 0 32.000000 32.000000"
 preserveAspectRatio="xMidYMid meet">

<g transform="translate(0.000000,32.000000) scale(0.100000,-0.100000)"
fill="#000000" stroke="none">
<path d="M112 313 c-37 -8 -98 -75 -106 -117 -15 -81 24 -153 98 -181 52 -20
94 -15 144 15 35 22 72 88 72 130 0 39 -35 105 -68 129 -31 21 -98 33 -140 24z
m23 -96 c12 -10 14 -16 7 -21 -24 -15 -10 -21 43 -20 56 1 72 -7 60 -26 -5 -8
-11 -7 -21 1 -11 9 -14 9 -14 0 0 -7 -6 -11 -12 -10 -41 5 -66 -2 -64 -18 2
-24 -30 -28 -59 -9 -17 11 -25 26 -25 44 0 32 8 45 35 60 26 15 28 15 50 -1z"/>
</g>
</svg>
