<?xml version="1.0" standalone="no"?>
<!DOCTYPE svg PUBLIC "-//W3C//DTD SVG 20010904//EN"
 "http://www.w3.org/TR/2001/REC-SVG-20010904/DTD/svg10.dtd">
<svg version="1.0" xmlns="http://www.w3.org/2000/svg"
 width="32.000000pt" height="32.000000pt" viewBox="0 0 32.000000 32.000000"
 preserveAspectRatio="xMidYMid meet">

<g transform="translate(0.000000,32.000000) scale(0.100000,-0.100000)"
fill="#000000" stroke="none">
<path d="M100 304 c-37 -16 -70 -42 -70 -56 0 -4 58 -8 130 -8 72 0 130 4 130
8 0 25 -89 72 -132 72 -13 -1 -39 -8 -58 -16z"/>
<path d="M95 179 c-5 -16 -10 -18 -21 -8 -11 9 -14 8 -14 -2 0 -22 17 -42 28
-35 14 8 33 66 22 66 -5 0 -12 -9 -15 -21z"/>
<path d="M126 168 c-6 -28 -2 -48 8 -37 8 10 15 69 7 69 -5 0 -11 -14 -15 -32z"/>
<path d="M164 189 c-3 -6 -1 -16 5 -22 16 -16 14 -25 -6 -30 -13 -4 -12 -5 5
-6 24 -1 44 30 24 37 -18 6 -14 20 6 25 13 4 12 5 -5 6 -12 0 -25 -4 -29 -10z"/>
<path d="M221 169 c-6 -18 -11 -32 -11 -33 0 -1 14 -1 31 -1 25 0 29 3 25 20
-3 11 -6 26 -6 33 0 25 -28 11 -39 -19z m26 -11 c-3 -8 -6 -5 -6 6 -1 11 2 17
5 13 3 -3 4 -12 1 -19z"/>
</g>
</svg>
